<mxfile host="Electron" modified="2023-10-11T21:20:55.372Z" agent="Mozilla/5.0 (Windows NT 10.0; Win64; x64) AppleWebKit/537.36 (KHTML, like Gecko) draw.io/21.3.7 Chrome/112.0.5615.204 Electron/24.5.0 Safari/537.36" etag="yUXw7Yro1gYt2z-SHXp1" version="21.3.7" type="device">
  <diagram id="C5RBs43oDa-KdzZeNtuy" name="Page-1">
    <mxGraphModel dx="1727" dy="1023" grid="1" gridSize="10" guides="1" tooltips="1" connect="1" arrows="1" fold="1" page="1" pageScale="1" pageWidth="827" pageHeight="1169" math="0" shadow="0">
      <root>
        <mxCell id="WIyWlLk6GJQsqaUBKTNV-0" />
        <mxCell id="WIyWlLk6GJQsqaUBKTNV-1" parent="WIyWlLk6GJQsqaUBKTNV-0" />
        <mxCell id="dPG2GvtP-q3ptGs4VAxx-78" value="Utilisateurs" style="swimlane;fontStyle=0;childLayout=stackLayout;horizontal=1;startSize=26;fillColor=none;horizontalStack=0;resizeParent=1;resizeParentMax=0;resizeLast=0;collapsible=1;marginBottom=0;" vertex="1" parent="WIyWlLk6GJQsqaUBKTNV-1">
          <mxGeometry x="330" y="140" width="140" height="260" as="geometry" />
        </mxCell>
        <mxCell id="dPG2GvtP-q3ptGs4VAxx-79" value="+ nom: string" style="text;strokeColor=none;fillColor=none;align=left;verticalAlign=top;spacingLeft=4;spacingRight=4;overflow=hidden;rotatable=0;points=[[0,0.5],[1,0.5]];portConstraint=eastwest;" vertex="1" parent="dPG2GvtP-q3ptGs4VAxx-78">
          <mxGeometry y="26" width="140" height="26" as="geometry" />
        </mxCell>
        <mxCell id="dPG2GvtP-q3ptGs4VAxx-80" value="+ prenom: string" style="text;strokeColor=none;fillColor=none;align=left;verticalAlign=top;spacingLeft=4;spacingRight=4;overflow=hidden;rotatable=0;points=[[0,0.5],[1,0.5]];portConstraint=eastwest;" vertex="1" parent="dPG2GvtP-q3ptGs4VAxx-78">
          <mxGeometry y="52" width="140" height="26" as="geometry" />
        </mxCell>
        <mxCell id="dPG2GvtP-q3ptGs4VAxx-81" value="+ email: string" style="text;strokeColor=none;fillColor=none;align=left;verticalAlign=top;spacingLeft=4;spacingRight=4;overflow=hidden;rotatable=0;points=[[0,0.5],[1,0.5]];portConstraint=eastwest;" vertex="1" parent="dPG2GvtP-q3ptGs4VAxx-78">
          <mxGeometry y="78" width="140" height="26" as="geometry" />
        </mxCell>
        <mxCell id="dPG2GvtP-q3ptGs4VAxx-82" value="+ password: string" style="text;strokeColor=none;fillColor=none;align=left;verticalAlign=top;spacingLeft=4;spacingRight=4;overflow=hidden;rotatable=0;points=[[0,0.5],[1,0.5]];portConstraint=eastwest;" vertex="1" parent="dPG2GvtP-q3ptGs4VAxx-78">
          <mxGeometry y="104" width="140" height="26" as="geometry" />
        </mxCell>
        <mxCell id="dPG2GvtP-q3ptGs4VAxx-83" value="+ adresse: string" style="text;strokeColor=none;fillColor=none;align=left;verticalAlign=top;spacingLeft=4;spacingRight=4;overflow=hidden;rotatable=0;points=[[0,0.5],[1,0.5]];portConstraint=eastwest;" vertex="1" parent="dPG2GvtP-q3ptGs4VAxx-78">
          <mxGeometry y="130" width="140" height="26" as="geometry" />
        </mxCell>
        <mxCell id="dPG2GvtP-q3ptGs4VAxx-84" value="+ telephone: string" style="text;strokeColor=none;fillColor=none;align=left;verticalAlign=top;spacingLeft=4;spacingRight=4;overflow=hidden;rotatable=0;points=[[0,0.5],[1,0.5]];portConstraint=eastwest;" vertex="1" parent="dPG2GvtP-q3ptGs4VAxx-78">
          <mxGeometry y="156" width="140" height="26" as="geometry" />
        </mxCell>
        <mxCell id="dPG2GvtP-q3ptGs4VAxx-85" value="+ role: enum" style="text;strokeColor=none;fillColor=none;align=left;verticalAlign=top;spacingLeft=4;spacingRight=4;overflow=hidden;rotatable=0;points=[[0,0.5],[1,0.5]];portConstraint=eastwest;" vertex="1" parent="dPG2GvtP-q3ptGs4VAxx-78">
          <mxGeometry y="182" width="140" height="26" as="geometry" />
        </mxCell>
        <mxCell id="dPG2GvtP-q3ptGs4VAxx-86" value="+ created_at: string" style="text;strokeColor=none;fillColor=none;align=left;verticalAlign=top;spacingLeft=4;spacingRight=4;overflow=hidden;rotatable=0;points=[[0,0.5],[1,0.5]];portConstraint=eastwest;" vertex="1" parent="dPG2GvtP-q3ptGs4VAxx-78">
          <mxGeometry y="208" width="140" height="26" as="geometry" />
        </mxCell>
        <mxCell id="dPG2GvtP-q3ptGs4VAxx-87" value="+ updated_at: string" style="text;strokeColor=none;fillColor=none;align=left;verticalAlign=top;spacingLeft=4;spacingRight=4;overflow=hidden;rotatable=0;points=[[0,0.5],[1,0.5]];portConstraint=eastwest;" vertex="1" parent="dPG2GvtP-q3ptGs4VAxx-78">
          <mxGeometry y="234" width="140" height="26" as="geometry" />
        </mxCell>
        <mxCell id="dPG2GvtP-q3ptGs4VAxx-99" value="Taches" style="swimlane;fontStyle=0;childLayout=stackLayout;horizontal=1;startSize=26;fillColor=none;horizontalStack=0;resizeParent=1;resizeParentMax=0;resizeLast=0;collapsible=1;marginBottom=0;" vertex="1" parent="WIyWlLk6GJQsqaUBKTNV-1">
          <mxGeometry x="620" y="670" width="140" height="182" as="geometry" />
        </mxCell>
        <mxCell id="dPG2GvtP-q3ptGs4VAxx-100" value="+ quantite: integer" style="text;strokeColor=none;fillColor=none;align=left;verticalAlign=top;spacingLeft=4;spacingRight=4;overflow=hidden;rotatable=0;points=[[0,0.5],[1,0.5]];portConstraint=eastwest;" vertex="1" parent="dPG2GvtP-q3ptGs4VAxx-99">
          <mxGeometry y="26" width="140" height="26" as="geometry" />
        </mxCell>
        <mxCell id="dPG2GvtP-q3ptGs4VAxx-101" value="+ description: string" style="text;strokeColor=none;fillColor=none;align=left;verticalAlign=top;spacingLeft=4;spacingRight=4;overflow=hidden;rotatable=0;points=[[0,0.5],[1,0.5]];portConstraint=eastwest;" vertex="1" parent="dPG2GvtP-q3ptGs4VAxx-99">
          <mxGeometry y="52" width="140" height="26" as="geometry" />
        </mxCell>
        <mxCell id="dPG2GvtP-q3ptGs4VAxx-102" value="+ prixUnitaire: float" style="text;strokeColor=none;fillColor=none;align=left;verticalAlign=top;spacingLeft=4;spacingRight=4;overflow=hidden;rotatable=0;points=[[0,0.5],[1,0.5]];portConstraint=eastwest;" vertex="1" parent="dPG2GvtP-q3ptGs4VAxx-99">
          <mxGeometry y="78" width="140" height="26" as="geometry" />
        </mxCell>
        <mxCell id="dPG2GvtP-q3ptGs4VAxx-103" value="+ prixHT: float" style="text;strokeColor=none;fillColor=none;align=left;verticalAlign=top;spacingLeft=4;spacingRight=4;overflow=hidden;rotatable=0;points=[[0,0.5],[1,0.5]];portConstraint=eastwest;" vertex="1" parent="dPG2GvtP-q3ptGs4VAxx-99">
          <mxGeometry y="104" width="140" height="26" as="geometry" />
        </mxCell>
        <mxCell id="dPG2GvtP-q3ptGs4VAxx-104" value="+ created_at: string" style="text;strokeColor=none;fillColor=none;align=left;verticalAlign=top;spacingLeft=4;spacingRight=4;overflow=hidden;rotatable=0;points=[[0,0.5],[1,0.5]];portConstraint=eastwest;" vertex="1" parent="dPG2GvtP-q3ptGs4VAxx-99">
          <mxGeometry y="130" width="140" height="26" as="geometry" />
        </mxCell>
        <mxCell id="dPG2GvtP-q3ptGs4VAxx-105" value="+ updated_at: string" style="text;strokeColor=none;fillColor=none;align=left;verticalAlign=top;spacingLeft=4;spacingRight=4;overflow=hidden;rotatable=0;points=[[0,0.5],[1,0.5]];portConstraint=eastwest;" vertex="1" parent="dPG2GvtP-q3ptGs4VAxx-99">
          <mxGeometry y="156" width="140" height="26" as="geometry" />
        </mxCell>
        <mxCell id="dPG2GvtP-q3ptGs4VAxx-109" value="Service" style="swimlane;fontStyle=0;childLayout=stackLayout;horizontal=1;startSize=26;fillColor=none;horizontalStack=0;resizeParent=1;resizeParentMax=0;resizeLast=0;collapsible=1;marginBottom=0;" vertex="1" parent="WIyWlLk6GJQsqaUBKTNV-1">
          <mxGeometry x="100" y="452" width="140" height="130" as="geometry" />
        </mxCell>
        <mxCell id="dPG2GvtP-q3ptGs4VAxx-110" value="+ titlre: string" style="text;strokeColor=none;fillColor=none;align=left;verticalAlign=top;spacingLeft=4;spacingRight=4;overflow=hidden;rotatable=0;points=[[0,0.5],[1,0.5]];portConstraint=eastwest;" vertex="1" parent="dPG2GvtP-q3ptGs4VAxx-109">
          <mxGeometry y="26" width="140" height="26" as="geometry" />
        </mxCell>
        <mxCell id="dPG2GvtP-q3ptGs4VAxx-156" value="+ description: text" style="text;strokeColor=none;fillColor=none;align=left;verticalAlign=top;spacingLeft=4;spacingRight=4;overflow=hidden;rotatable=0;points=[[0,0.5],[1,0.5]];portConstraint=eastwest;" vertex="1" parent="dPG2GvtP-q3ptGs4VAxx-109">
          <mxGeometry y="52" width="140" height="26" as="geometry" />
        </mxCell>
        <mxCell id="dPG2GvtP-q3ptGs4VAxx-111" value="+ created_at: string" style="text;strokeColor=none;fillColor=none;align=left;verticalAlign=top;spacingLeft=4;spacingRight=4;overflow=hidden;rotatable=0;points=[[0,0.5],[1,0.5]];portConstraint=eastwest;" vertex="1" parent="dPG2GvtP-q3ptGs4VAxx-109">
          <mxGeometry y="78" width="140" height="26" as="geometry" />
        </mxCell>
        <mxCell id="dPG2GvtP-q3ptGs4VAxx-112" value="+ updated_at: string" style="text;strokeColor=none;fillColor=none;align=left;verticalAlign=top;spacingLeft=4;spacingRight=4;overflow=hidden;rotatable=0;points=[[0,0.5],[1,0.5]];portConstraint=eastwest;" vertex="1" parent="dPG2GvtP-q3ptGs4VAxx-109">
          <mxGeometry y="104" width="140" height="26" as="geometry" />
        </mxCell>
        <mxCell id="dPG2GvtP-q3ptGs4VAxx-116" value="Devis" style="swimlane;fontStyle=0;childLayout=stackLayout;horizontal=1;startSize=26;fillColor=none;horizontalStack=0;resizeParent=1;resizeParentMax=0;resizeLast=0;collapsible=1;marginBottom=0;" vertex="1" parent="WIyWlLk6GJQsqaUBKTNV-1">
          <mxGeometry x="354" y="610" width="140" height="104" as="geometry" />
        </mxCell>
        <mxCell id="dPG2GvtP-q3ptGs4VAxx-117" value="+ ref: string" style="text;strokeColor=none;fillColor=none;align=left;verticalAlign=top;spacingLeft=4;spacingRight=4;overflow=hidden;rotatable=0;points=[[0,0.5],[1,0.5]];portConstraint=eastwest;" vertex="1" parent="dPG2GvtP-q3ptGs4VAxx-116">
          <mxGeometry y="26" width="140" height="26" as="geometry" />
        </mxCell>
        <mxCell id="dPG2GvtP-q3ptGs4VAxx-119" value="+ created_at: string" style="text;strokeColor=none;fillColor=none;align=left;verticalAlign=top;spacingLeft=4;spacingRight=4;overflow=hidden;rotatable=0;points=[[0,0.5],[1,0.5]];portConstraint=eastwest;" vertex="1" parent="dPG2GvtP-q3ptGs4VAxx-116">
          <mxGeometry y="52" width="140" height="26" as="geometry" />
        </mxCell>
        <mxCell id="dPG2GvtP-q3ptGs4VAxx-120" value="+ updated_at: string" style="text;strokeColor=none;fillColor=none;align=left;verticalAlign=top;spacingLeft=4;spacingRight=4;overflow=hidden;rotatable=0;points=[[0,0.5],[1,0.5]];portConstraint=eastwest;" vertex="1" parent="dPG2GvtP-q3ptGs4VAxx-116">
          <mxGeometry y="78" width="140" height="26" as="geometry" />
        </mxCell>
        <mxCell id="dPG2GvtP-q3ptGs4VAxx-121" value="" style="endArrow=none;html=1;edgeStyle=orthogonalEdgeStyle;rounded=0;entryX=0.006;entryY=0.25;entryDx=0;entryDy=0;entryPerimeter=0;exitX=0.542;exitY=0.999;exitDx=0;exitDy=0;exitPerimeter=0;" edge="1" parent="WIyWlLk6GJQsqaUBKTNV-1" source="dPG2GvtP-q3ptGs4VAxx-120" target="dPG2GvtP-q3ptGs4VAxx-103">
          <mxGeometry relative="1" as="geometry">
            <mxPoint x="430" y="750" as="sourcePoint" />
            <mxPoint x="545.1600000000003" y="739.9979999999999" as="targetPoint" />
            <Array as="points">
              <mxPoint x="430" y="781" />
            </Array>
          </mxGeometry>
        </mxCell>
        <mxCell id="dPG2GvtP-q3ptGs4VAxx-122" value="1" style="edgeLabel;resizable=0;html=1;align=left;verticalAlign=bottom;" connectable="0" vertex="1" parent="dPG2GvtP-q3ptGs4VAxx-121">
          <mxGeometry x="-1" relative="1" as="geometry">
            <mxPoint x="2" y="17" as="offset" />
          </mxGeometry>
        </mxCell>
        <mxCell id="dPG2GvtP-q3ptGs4VAxx-123" value="*" style="edgeLabel;resizable=0;html=1;align=right;verticalAlign=bottom;" connectable="0" vertex="1" parent="dPG2GvtP-q3ptGs4VAxx-121">
          <mxGeometry x="1" relative="1" as="geometry">
            <mxPoint x="-11" as="offset" />
          </mxGeometry>
        </mxCell>
        <mxCell id="dPG2GvtP-q3ptGs4VAxx-124" value="" style="endArrow=none;html=1;edgeStyle=orthogonalEdgeStyle;rounded=0;exitX=0.557;exitY=0.974;exitDx=0;exitDy=0;exitPerimeter=0;" edge="1" parent="WIyWlLk6GJQsqaUBKTNV-1" source="dPG2GvtP-q3ptGs4VAxx-112">
          <mxGeometry relative="1" as="geometry">
            <mxPoint x="194" y="680" as="sourcePoint" />
            <mxPoint x="354" y="680" as="targetPoint" />
            <Array as="points">
              <mxPoint x="178" y="680" />
            </Array>
          </mxGeometry>
        </mxCell>
        <mxCell id="dPG2GvtP-q3ptGs4VAxx-125" value="*" style="edgeLabel;resizable=0;html=1;align=left;verticalAlign=bottom;" connectable="0" vertex="1" parent="dPG2GvtP-q3ptGs4VAxx-124">
          <mxGeometry x="-1" relative="1" as="geometry">
            <mxPoint x="2" y="25" as="offset" />
          </mxGeometry>
        </mxCell>
        <mxCell id="dPG2GvtP-q3ptGs4VAxx-126" value="*" style="edgeLabel;resizable=0;html=1;align=right;verticalAlign=bottom;" connectable="0" vertex="1" parent="dPG2GvtP-q3ptGs4VAxx-124">
          <mxGeometry x="1" relative="1" as="geometry">
            <mxPoint x="-14" as="offset" />
          </mxGeometry>
        </mxCell>
        <mxCell id="dPG2GvtP-q3ptGs4VAxx-127" value="" style="endArrow=none;html=1;edgeStyle=orthogonalEdgeStyle;rounded=0;exitX=0.475;exitY=-0.009;exitDx=0;exitDy=0;exitPerimeter=0;" edge="1" parent="WIyWlLk6GJQsqaUBKTNV-1" source="dPG2GvtP-q3ptGs4VAxx-109">
          <mxGeometry relative="1" as="geometry">
            <mxPoint x="170" y="330" as="sourcePoint" />
            <mxPoint x="330" y="330" as="targetPoint" />
            <Array as="points">
              <mxPoint x="167" y="391" />
              <mxPoint x="167" y="391" />
              <mxPoint x="167" y="330" />
            </Array>
          </mxGeometry>
        </mxCell>
        <mxCell id="dPG2GvtP-q3ptGs4VAxx-128" value="*" style="edgeLabel;resizable=0;html=1;align=left;verticalAlign=bottom;" connectable="0" vertex="1" parent="dPG2GvtP-q3ptGs4VAxx-127">
          <mxGeometry x="-1" relative="1" as="geometry" />
        </mxCell>
        <mxCell id="dPG2GvtP-q3ptGs4VAxx-129" value="1" style="edgeLabel;resizable=0;html=1;align=right;verticalAlign=bottom;" connectable="0" vertex="1" parent="dPG2GvtP-q3ptGs4VAxx-127">
          <mxGeometry x="1" relative="1" as="geometry">
            <mxPoint x="-10" as="offset" />
          </mxGeometry>
        </mxCell>
        <mxCell id="dPG2GvtP-q3ptGs4VAxx-141" value="Facture" style="swimlane;fontStyle=0;childLayout=stackLayout;horizontal=1;startSize=26;fillColor=none;horizontalStack=0;resizeParent=1;resizeParentMax=0;resizeLast=0;collapsible=1;marginBottom=0;" vertex="1" parent="WIyWlLk6GJQsqaUBKTNV-1">
          <mxGeometry x="634.94" y="348" width="140" height="104" as="geometry" />
        </mxCell>
        <mxCell id="dPG2GvtP-q3ptGs4VAxx-142" value="+ ref: string" style="text;strokeColor=none;fillColor=none;align=left;verticalAlign=top;spacingLeft=4;spacingRight=4;overflow=hidden;rotatable=0;points=[[0,0.5],[1,0.5]];portConstraint=eastwest;" vertex="1" parent="dPG2GvtP-q3ptGs4VAxx-141">
          <mxGeometry y="26" width="140" height="26" as="geometry" />
        </mxCell>
        <mxCell id="dPG2GvtP-q3ptGs4VAxx-143" value="+ created_at: string" style="text;strokeColor=none;fillColor=none;align=left;verticalAlign=top;spacingLeft=4;spacingRight=4;overflow=hidden;rotatable=0;points=[[0,0.5],[1,0.5]];portConstraint=eastwest;" vertex="1" parent="dPG2GvtP-q3ptGs4VAxx-141">
          <mxGeometry y="52" width="140" height="26" as="geometry" />
        </mxCell>
        <mxCell id="dPG2GvtP-q3ptGs4VAxx-144" value="+ updated_at: string" style="text;strokeColor=none;fillColor=none;align=left;verticalAlign=top;spacingLeft=4;spacingRight=4;overflow=hidden;rotatable=0;points=[[0,0.5],[1,0.5]];portConstraint=eastwest;" vertex="1" parent="dPG2GvtP-q3ptGs4VAxx-141">
          <mxGeometry y="78" width="140" height="26" as="geometry" />
        </mxCell>
        <mxCell id="dPG2GvtP-q3ptGs4VAxx-145" value="" style="endArrow=none;html=1;edgeStyle=orthogonalEdgeStyle;rounded=0;entryX=0.004;entryY=1.049;entryDx=0;entryDy=0;entryPerimeter=0;" edge="1" parent="WIyWlLk6GJQsqaUBKTNV-1" source="dPG2GvtP-q3ptGs4VAxx-116" target="dPG2GvtP-q3ptGs4VAxx-142">
          <mxGeometry relative="1" as="geometry">
            <mxPoint x="530" y="172.6500000000001" as="sourcePoint" />
            <mxPoint x="634.94" y="228" as="targetPoint" />
            <Array as="points">
              <mxPoint x="530" y="662" />
              <mxPoint x="530" y="401" />
            </Array>
          </mxGeometry>
        </mxCell>
        <mxCell id="dPG2GvtP-q3ptGs4VAxx-146" value="1" style="edgeLabel;resizable=0;html=1;align=left;verticalAlign=bottom;" connectable="0" vertex="1" parent="dPG2GvtP-q3ptGs4VAxx-145">
          <mxGeometry x="-1" relative="1" as="geometry">
            <mxPoint x="16" y="-2" as="offset" />
          </mxGeometry>
        </mxCell>
        <mxCell id="dPG2GvtP-q3ptGs4VAxx-147" value="1" style="edgeLabel;resizable=0;html=1;align=right;verticalAlign=bottom;" connectable="0" vertex="1" parent="dPG2GvtP-q3ptGs4VAxx-145">
          <mxGeometry x="1" relative="1" as="geometry">
            <mxPoint x="-5" y="-1" as="offset" />
          </mxGeometry>
        </mxCell>
        <mxCell id="dPG2GvtP-q3ptGs4VAxx-157" value="" style="endArrow=none;html=1;edgeStyle=orthogonalEdgeStyle;rounded=0;entryX=0.518;entryY=0.006;entryDx=0;entryDy=0;entryPerimeter=0;exitX=0.258;exitY=1.051;exitDx=0;exitDy=0;exitPerimeter=0;" edge="1" parent="WIyWlLk6GJQsqaUBKTNV-1" source="dPG2GvtP-q3ptGs4VAxx-144" target="dPG2GvtP-q3ptGs4VAxx-99">
          <mxGeometry relative="1" as="geometry">
            <mxPoint x="609.44" y="551" as="sourcePoint" />
            <mxPoint x="800.44" y="618" as="targetPoint" />
            <Array as="points">
              <mxPoint x="671" y="618" />
              <mxPoint x="693" y="618" />
            </Array>
          </mxGeometry>
        </mxCell>
        <mxCell id="dPG2GvtP-q3ptGs4VAxx-158" value="1" style="edgeLabel;resizable=0;html=1;align=left;verticalAlign=bottom;" connectable="0" vertex="1" parent="dPG2GvtP-q3ptGs4VAxx-157">
          <mxGeometry x="-1" relative="1" as="geometry">
            <mxPoint x="2" y="17" as="offset" />
          </mxGeometry>
        </mxCell>
        <mxCell id="dPG2GvtP-q3ptGs4VAxx-159" value="*" style="edgeLabel;resizable=0;html=1;align=right;verticalAlign=bottom;" connectable="0" vertex="1" parent="dPG2GvtP-q3ptGs4VAxx-157">
          <mxGeometry x="1" relative="1" as="geometry">
            <mxPoint x="-11" as="offset" />
          </mxGeometry>
        </mxCell>
        <mxCell id="dPG2GvtP-q3ptGs4VAxx-160" value="[ Role = client ]" style="text;html=1;align=center;verticalAlign=middle;resizable=0;points=[];autosize=1;strokeColor=none;fillColor=none;" vertex="1" parent="WIyWlLk6GJQsqaUBKTNV-1">
          <mxGeometry x="170" y="300" width="100" height="30" as="geometry" />
        </mxCell>
        <mxCell id="dPG2GvtP-q3ptGs4VAxx-169" value="" style="endArrow=none;html=1;edgeStyle=orthogonalEdgeStyle;rounded=0;entryX=0;entryY=0.5;entryDx=0;entryDy=0;exitX=0.079;exitY=1.014;exitDx=0;exitDy=0;exitPerimeter=0;" edge="1" parent="WIyWlLk6GJQsqaUBKTNV-1" source="dPG2GvtP-q3ptGs4VAxx-112" target="dPG2GvtP-q3ptGs4VAxx-105">
          <mxGeometry relative="1" as="geometry">
            <mxPoint x="410" y="770" as="sourcePoint" />
            <mxPoint x="601" y="837" as="targetPoint" />
            <Array as="points">
              <mxPoint x="111" y="837" />
              <mxPoint x="620" y="837" />
            </Array>
          </mxGeometry>
        </mxCell>
        <mxCell id="dPG2GvtP-q3ptGs4VAxx-170" value="1" style="edgeLabel;resizable=0;html=1;align=left;verticalAlign=bottom;" connectable="0" vertex="1" parent="dPG2GvtP-q3ptGs4VAxx-169">
          <mxGeometry x="-1" relative="1" as="geometry">
            <mxPoint x="2" y="17" as="offset" />
          </mxGeometry>
        </mxCell>
        <mxCell id="dPG2GvtP-q3ptGs4VAxx-171" value="*" style="edgeLabel;resizable=0;html=1;align=right;verticalAlign=bottom;" connectable="0" vertex="1" parent="dPG2GvtP-q3ptGs4VAxx-169">
          <mxGeometry x="1" relative="1" as="geometry">
            <mxPoint x="-11" y="-9" as="offset" />
          </mxGeometry>
        </mxCell>
      </root>
    </mxGraphModel>
  </diagram>
</mxfile>
